<svg id="Layer_1" data-name="Layer 1" xmlns="http://www.w3.org/2000/svg" viewBox="0 0 87 256"><path d="M27.7,199.9v55.4a32.1,32.1,0,0,1-4.6.4H8.8a32.1,32.1,0,0,1-4.6-.4,4,4,0,0,1-2.6-1.6C.5,252.6,0,251.8,0,251.1V85.2C0,81,.3,75.9.9,70A129.1,129.1,0,0,1,4,52.1,129.1,129.1,0,0,1,9.2,34.8a46.3,46.3,0,0,1,7.7-13.4l5.5-6.1c2.3-2.5,4.6-4.8,6.9-7l6-5.8A21.5,21.5,0,0,1,38.2,0h8.5c1.7,4.6,3.4,9,5,13.2l4.2,11.3c1.4,3.9,2.6,7.1,3.4,9.5s1.3,3.8,2.3,6.5,1.9,5.4,2.7,8.2l2.4,7.2c.7,2.1,1.2,3.4,1.3,3.7.4,2.3,1,6.1,1.9,11.3s1.7,10.9,2.6,16.8,1.7,11.4,2.5,16.6,1.3,8.8,1.5,10.7.3,6.1.4,10.3.1,8.4.1,12.5,0,7.7-.1,10.7-.2,4.6-.4,4.7Z" fill="#e0d020"/></svg>