<svg id="Layer_1" data-name="Layer 1" xmlns="http://www.w3.org/2000/svg" viewBox="0 0 87 256"><path d="M.5,153.3a27,27,0,0,1-.4-4.8c-.1-3-.1-6.5-.1-10.7s0-8.3.1-12.5.3-7.7.4-10.3.7-5.5,1.5-10.7S3.6,93.6,4.5,87.7,6.2,76.2,7.1,71,8.6,61.9,9,59.6c.1-.3.6-1.6,1.3-3.7l2.4-7.2c.8-2.8,1.8-5.5,2.7-8.2s1.7-4.9,2.3-6.5,2-5.6,3.4-9.5l4.2-11.3C26.9,9,28.6,4.6,30.3,0h8.5a21.5,21.5,0,0,1,2.9,2.5l6,5.8c2.3,2.2,4.6,4.5,6.9,7l5.5,6.1a46.3,46.3,0,0,1,7.7,13.4,129.3,129.3,0,0,1,5.3,17.3,145.4,145.4,0,0,1,3,17.9c.6,5.9.9,11,.9,15.2V251.1a4,4,0,0,1-1.6,2.6,4,4,0,0,1-2.6,1.6,32.1,32.1,0,0,1-4.6.4l-7.1.2-7.2-.2a32.1,32.1,0,0,1-4.6-.4V199.9Z" fill="#e0d020"/></svg>