<svg id="Layer_1" data-name="Layer 1" xmlns="http://www.w3.org/2000/svg" viewBox="0 0 256 256"><path d="M171.4,243H84.6A67.6,67.6,0,0,1,17,175.4V95.5A67.6,67.6,0,0,1,84.6,27.9h86.8A67.6,67.6,0,0,1,239,95.5v79.9A67.6,67.6,0,0,1,171.4,243ZM84.6,38.6A57,57,0,0,0,27.7,95.5v79.9a57,57,0,0,0,56.9,56.9h86.8a57,57,0,0,0,56.9-56.9V95.5a57,57,0,0,0-56.9-56.9Z"/><path d="M207.1,164.7a14.3,14.3,0,0,0-2.8-3.2,99.7,99.7,0,0,0-11.2-8.1c-7.8-4.5-13.5-10.8-18.2-18.3-1.7-2.8-3.5-5.6-5.2-8.5a16.4,16.4,0,0,0-7.6-6.9c-3.1-1.4-6.2-3.1-9.3-4.7l-1.5-.9c-7.1-4.5-8.6-7.8-7-16,2.1-10.9,5.7-21.4,9.3-31.8l4.5-13.5a15.7,15.7,0,0,0,.4-2.3l-.5-.4a16.9,16.9,0,0,0-3.6,2.3c-3.4,3.2-7,6.2-10,9.8l-.6.8c.5-2.8,1.3-7.3,1.4-7.6.6-2,1.3-4,1.7-6s.2-2.5-.4-3-2.2,0-3.1.9c-2.5,2.7-5.3,5.3-7.6,8.3-8,10.6-12.9,22.8-16.9,35.4-.8,2.7-2.5,9.3-3.4,12.6-17.2,8.3-33.1,18.4-46.7,32a93.6,93.6,0,0,0-19,26.3c-2.2,4.6-1.4,14.1.3,18.4A62.7,62.7,0,0,0,67,204.5a84.1,84.1,0,0,0,49.4,21.3c6.4.6,27.7-.4,32.3-1.3.7,8.6,1.1,17.3,1.3,22.7h12.9c-.6-12.6-3-43.1-14.7-57.6-.8-1-10.9-15.5-13.6-22.6a4.6,4.6,0,0,0-1.1-1.8v-3.3h0l4.3-6.2h.4c3,6.5,8.6,7,14.5,6.1a33.4,33.4,0,0,1,18,2c3.3,1.4,6.7,2.4,10,3.7s8.2,3.5,12.4,5.1a5.6,5.6,0,0,0,3.6.2c3.4-1.7,6.7-3.7,10-5.6A1.8,1.8,0,0,0,207.1,164.7Z"/><path d="M130.9,182.4c-21.8-11.4-44.8-18-69.5-18.3h-1a63.2,63.2,0,0,0,3.2,13.3c4.9,12.1,13.6,20.8,24.7,27.2,13.4,7.6,28.1,10.9,43.3,12.5,2.4.3,11.8,1,16.5.5a110.2,110.2,0,0,0-2.6-15.2C141.6,188.1,139.4,186.8,130.9,182.4ZM125,208.5c-10.8-1.6-21.3-4.4-31-9.6s-18.7-13.1-23.2-24.2a29.2,29.2,0,0,1-1.1-3.2,19.9,19.9,0,0,1,2.7.2c7.6,1.4,15.3,2.4,22.8,4.3,13.5,3.3,26,8.7,37,17.3,5.4,4.1,6.6,10.2,7.5,16.9C134.5,209.6,129.8,209.2,125,208.5Z" fill="#e0d020"/><path d="M168,134.6c0-.5.2-1.1,0-1.5a14.1,14.1,0,0,0-6.2-6.8,17.8,17.8,0,0,0-3.6-1.4,26.8,26.8,0,0,1-10-5.3l-8.9-7.1c-.3-.3-.9-.2-1.4-.4s.2,1.2.6,1.5c4,3.2,8,6.6,12.3,9.6A23.1,23.1,0,0,0,157,126c4.3,1.2,7.7,3.5,9.6,7.7a8.7,8.7,0,0,0,.8,1Z" fill="#e0d020"/><path d="M150.2,252.9H163c0-.1,0-2.2-.1-5.7H150C150.1,250.6,150.2,252.7,150.2,252.9Z" fill="#e0d020"/><path d="M133.8,165.5l-.3-3.5c-1.5-.9-1.2-1.9-.7-3,1.5-2.9,2.8-5.9,4.4-8.8s1.8-7.8-.5-11.6l-1.2-2.1a30.6,30.6,0,0,1-3-6c-2.2-7.3-4.3-14.5-6.1-21.8a38.5,38.5,0,0,1-1.2-9.4l-4.8,2.1c.6,3.8,1,7.4,1.7,11,1.8,9.3,4.2,18.4,9.6,26.5,2,3,3,6.2.8,9.9a40.8,40.8,0,0,0-3.3,8.4c-1.1,3.5,0,5.8,3.3,7.4l1.3.9Z" fill="#e0d020"/><path d="M162,136.7l3.5,1.6c.8.4,1.5,1.1,2.3,1.5a1.7,1.7,0,0,0,1.3-.4c.2-.2,0-.9-.2-1.2s-.9-.6-1.3-1-2-2-2.8-3.2c-1.9-3.1-4.9-4.5-8.2-5.5a24,24,0,0,1-4.6-2.1c-3.6-2.4-7.1-5.1-10.7-7.7l-.5-.4c-.7-.5-1.5-1.2-2.1-.2s.3,1.5.7,1.8l13,9.4a5.2,5.2,0,0,1,1.7,2.2C155.5,135.3,157.8,137.1,162,136.7Z" fill="#e0d020"/><path d="M174,28.9H82A12.9,12.9,0,1,1,82,3.1h92a12.9,12.9,0,1,1,0,25.8Z"/></svg>